<?xml version="1.0" encoding="utf-8"?>
<svg xmlns="http://www.w3.org/2000/svg" xmlns:xlink="http://www.w3.org/1999/xlink">
    <symbol viewBox="0 0 14 14" id="action" xmlns="http://www.w3.org/2000/svg">
        <path fill-rule="evenodd" clip-rule="evenodd"
              d="M7 14A7 7 0 107 0a7 7 0 000 14zM4.667 5.833a1.167 1.167 0 100-2.333 1.167 1.167 0 000 2.333zM9.333 10.5a1.167 1.167 0 100-2.333 1.167 1.167 0 000 2.333zm-5.428-.85a.82.82 0 001.341.263l4.637-4.696a.777.777 0 10-1.1-1.1L4.087 8.753a.82.82 0 00-.182.896z"/>
    </symbol>
    <symbol viewBox="0 0 32 32" id="arr_in_round" xmlns="http://www.w3.org/2000/svg">
        <path fill-rule="evenodd" clip-rule="evenodd"
              d="M16 2.065C8.304 2.065 2.065 8.304 2.065 16c0 7.696 6.239 13.936 13.935 13.936 7.696 0 13.936-6.24 13.936-13.936S23.696 2.065 16 2.065zM0 16C0 7.163 7.163 0 16 0s16 7.163 16 16-7.163 16-16 16S0 24.837 0 16z"/>
        <path fill-rule="evenodd" clip-rule="evenodd"
              d="M15.27 9.283a1.032 1.032 0 011.46 0l5.987 5.987a1.032 1.032 0 010 1.46l-5.987 5.987a1.032 1.032 0 01-1.46-1.46L20.527 16l-5.257-5.257a1.032 1.032 0 010-1.46z"/>
        <path fill-rule="evenodd" clip-rule="evenodd"
              d="M8.98 16c0-.57.463-1.032 1.033-1.032h11.974a1.032 1.032 0 010 2.064H10.013c-.57 0-1.032-.462-1.032-1.032z"/>
    </symbol>
    <symbol viewBox="0 0 11 10" id="arrow_right" xmlns="http://www.w3.org/2000/svg">
        <path d="M6.04 9.361l4.584-4.584L6.04.193 5.016 1.217l2.829 2.82H.393v1.48h7.452L5.016 8.343 6.04 9.36z"/>
    </symbol>
    <symbol id="basket" viewBox="0 0 16 16" xmlns="http://www.w3.org/2000/svg">
        <style>.adst0{fill-rule:evenodd;clip-rule:evenodd;fill:#545761}</style>
        <path class="adst0"
              d="M14.667 5h-1.333V3.5a3.5 3.5 0 00-5.6-2.8A3.539 3.539 0 006.167.333a3.5 3.5 0 00-3.5 3.5L2.67 5H1.333C.597 5 0 5.597 0 6.333v8.333C0 15.403.597 16 1.333 16h13.333c.737 0 1.334-.597 1.334-1.333V6.333C16 5.597 15.403 5 14.667 5zm-11.77 8.8a.7.7 0 11-1.4 0V7.2a.7.7 0 111.4 0v6.6zM9.833 1.667c1.013 0 1.833.82 1.833 1.833V5H8.003L8 3.5c0-1.013.82-1.833 1.833-1.833zM4.337 5l-.004-1.167a1.832 1.832 0 012.307-1.77A3.49 3.49 0 006.333 3.5L6.337 5h-2zm3.16 3a1 1 0 110 2 1 1 0 010-2zm4.894 4.214l-.008.009a3.894 3.894 0 01-2.895 1.28 3.906 3.906 0 01-2.904-1.287c-.175-.309-.074-.651.198-.8a.562.562 0 01.575.021l.037.031a2.813 2.813 0 004.156 0 .596.596 0 01.407-.168.562.562 0 01.434.914zM11.514 10a1 1 0 110-2 1 1 0 010 2z"/>
    </symbol>
    <symbol id="basket_empty" viewBox="0 0 16 16" xmlns="http://www.w3.org/2000/svg">
        <style>.aest0{fill-rule:evenodd;clip-rule:evenodd;fill:#545761}</style>
        <path class="aest0"
              d="M14.667 5h-1.333V3.5a3.5 3.5 0 00-5.6-2.8A3.539 3.539 0 006.167.333a3.5 3.5 0 00-3.5 3.5L2.67 5H1.333C.597 5 0 5.597 0 6.333v8.333C0 15.403.597 16 1.333 16h13.333c.737 0 1.334-.597 1.334-1.333V6.333C16 5.597 15.403 5 14.667 5zm-11.77 8.8a.7.7 0 11-1.4 0V7.2a.7.7 0 111.4 0v6.6zM9.833 1.667c1.013 0 1.833.82 1.833 1.833V5H8.003L8 3.5c0-1.013.82-1.833 1.833-1.833zM7.497 8a1 1 0 110 2 1 1 0 010-2zm-3.16-3l-.004-1.167a1.832 1.832 0 012.307-1.77A3.49 3.49 0 006.333 3.5L6.337 5h-2zm8.177 7.5a.6.6 0 01-.6.6H7.097a.6.6 0 01-.6-.6v-.1a.6.6 0 01.6-.6h4.817a.6.6 0 01.6.6v.1zm-1-2.5a1 1 0 110-2 1 1 0 010 2z"/>
    </symbol>
    <symbol id="calendar" viewBox="0 0 16 16" xmlns="http://www.w3.org/2000/svg">
        <style>.afst0{fill:#292d3a}</style>
        <path class="afst0"
              d="M13.002 0H3a3 3 0 00-3 3v10.002a3 3 0 003 3h10.002a3 3 0 003-3V3a3 3 0 00-3-3zM1.5 4.5V3c0-.827.673-1.5 1.5-1.5h10.002c.827 0 1.5.673 1.5 1.5v1.5H1.5zM3 14.502c-.827 0-1.5-.673-1.5-1.5V6h13.002v7.002c0 .827-.673 1.5-1.5 1.5H3zM11.497 7.5a1 1 0 100 2 1 1 0 000-2zm-3.5 0a1 1 0 100 2 1 1 0 000-2zm-3.5 0a1 1 0 100 2 1 1 0 000-2zm7 3.5a1 1 0 100 2 1 1 0 000-2zm-3.5 0a1 1 0 100 2 1 1 0 000-2zm-3.5 0a1 1 0 100 2 1 1 0 000-2z"/>
    </symbol>
    <symbol id="clinica" viewBox="0 0 12 12" xmlns="http://www.w3.org/2000/svg">
        <style>.agst0{fill:#545761}</style>
        <path class="agst0"
              d="M6 0L0 3v6c.138.196 2.185 3 6 3s5.862-2.804 6-3V3L6 0zm2.95 6.967H6.7v2.25H5.2v-2.25H2.95v-1.5H5.2v-2.25h1.5v2.25h2.25v1.5z"/>
    </symbol>
    <symbol id="clock" viewBox="0 0 12 12" xmlns="http://www.w3.org/2000/svg">
        <style>.ahst0{fill:#545761}</style>
        <path class="ahst0"
              d="M6 0a6 6 0 100 12A6 6 0 006 0zm2.25 7.25H5.5a.75.75 0 01-.75-.75V3.75a.75.75 0 011.5 0v2h2a.75.75 0 010 1.5z"/>
    </symbol>
    <symbol viewBox="0 0 18 18" id="clock-outline" xmlns="http://www.w3.org/2000/svg">
        <path d="M11.91 10.333L9.72 8.69V5.332a.72.72 0 10-1.44 0V9.05c0 .226.107.44.288.575l2.479 1.86a.716.716 0 001.008-.145.719.719 0 00-.144-1.007z"/>
        <path d="M9 .9C4.533.9.9 4.533.9 9s3.633 8.1 8.1 8.1 8.1-3.633 8.1-8.1S13.467.9 9 .9zm0 14.76A6.669 6.669 0 012.34 9 6.669 6.669 0 019 2.34 6.669 6.669 0 0115.66 9 6.669 6.669 0 019 15.66z"/>
    </symbol>
    <symbol viewBox="0 0 16 16" id="close" xmlns="http://www.w3.org/2000/svg">
        <path opacity=".2"
              d="M15.743 14.5L9.088 7.844 15.432 1.5A.88.88 0 0014.189.257L7.845 6.601 1.812.568A.88.88 0 10.568 1.811l6.033 6.034-6.344 6.343a.88.88 0 001.244 1.244l6.343-6.344 6.655 6.655a.88.88 0 001.244-1.244z"/>
    </symbol>
    <symbol viewBox="0 0 11 14" id="complex" xmlns="http://www.w3.org/2000/svg">
        <path d="M11 4.9c0-.77-.619-1.4-1.375-1.4h-2.2a.314.314 0 01-.275-.49c.206-.42.412-.91.412-1.26C7.563.77 6.806 0 5.845 0c-.965 0-1.72.77-1.72 1.75 0 .35.206.84.412 1.26.138.21-.068.49-.274.49H1.375C.619 3.5 0 4.13 0 4.9v1.68c0 .42.412.77.825.63.344-.14.688-.21.894-.21.962 0 1.718.77 1.718 1.75S2.681 10.5 1.72 10.5c-.207 0-.55-.07-.894-.21-.412-.07-.825.21-.825.63v1.68c0 .77.619 1.4 1.375 1.4h8.25c.756 0 1.375-.63 1.375-1.4V4.9z"/>
    </symbol>
    <symbol viewBox="0 0 16 16" id="cost" xmlns="http://www.w3.org/2000/svg">
        <path d="M8 0a8 8 0 100 16A8 8 0 008 0zm0 14.5A6.507 6.507 0 011.5 8c0-3.584 2.916-6.5 6.5-6.5s6.5 2.916 6.5 6.5-2.916 6.5-6.5 6.5zm2.356-9.286c-.187-.21-.44-.38-.763-.514-.322-.133-.735-.2-1.24-.2H6.47v3.246h-.729v.998h.73v.799h-.73v.898h.73V11.5h1.137v-1.059h1.308v-.898H7.608v-.779h.71c.492 0 .9-.065 1.222-.195.323-.13.581-.296.775-.499a1.72 1.72 0 00.404-.68 2.47 2.47 0 00.115-.733c0-.246-.034-.496-.1-.749a1.68 1.68 0 00-.378-.694zm-.791 1.987a.947.947 0 01-.336.335c-.137.08-.285.134-.442.165-.157.03-.306.045-.446.045h-.733V5.518h.753c.167 0 .33.016.486.046.158.03.3.086.427.17a.892.892 0 01.306.344c.077.146.115.336.115.569 0 .226-.043.411-.13.554z"/>
    </symbol>
    <symbol viewBox="0 0 16 16" id="covid_menu" xmlns="http://www.w3.org/2000/svg">
        <path d="M4 2a2 2 0 11-4 0 2 2 0 014 0zm0 6a2 2 0 11-4 0 2 2 0 014 0zm0 6a2 2 0 11-4 0 2 2 0 014 0zm6-12a2 2 0 11-4 0 2 2 0 014 0zm0 6a2 2 0 11-4 0 2 2 0 014 0zm0 6a2 2 0 11-4 0 2 2 0 014 0zm6-12a2 2 0 11-4 0 2 2 0 014 0zm0 6a2 2 0 11-4 0 2 2 0 014 0zm0 6a2 2 0 11-4 0 2 2 0 014 0z"/>
    </symbol>
    <symbol id="cross" viewBox="0 0 12 12" xmlns="http://www.w3.org/2000/svg">
        <style>.anst0{fill-rule:evenodd;clip-rule:evenodd;fill:#f26531}</style>
        <path class="anst0"
              d="M11.708 10.265a.997.997 0 010 1.411l-.031.031a.997.997 0 01-1.411 0L6 7.443l-4.265 4.265a.997.997 0 01-1.411 0l-.031-.031a.997.997 0 010-1.411L4.557 6 .292 1.735a.997.997 0 010-1.411L.323.293a.997.997 0 011.411 0L6 4.557 10.265.292a.997.997 0 011.411 0l.031.031a.997.997 0 010 1.411L7.443 6l4.265 4.265z"/>
    </symbol>
    <symbol viewBox="0 0 21 15" id="crown" xmlns="http://www.w3.org/2000/svg">
        <path d="M3.75 15H1.875a.938.938 0 01-.938-.938V4.688a.937.937 0 111.875 0v.468a3.281 3.281 0 106.563 0v-.468a.937.937 0 111.875 0v.468a5.166 5.166 0 01-5.156 5.157A5.11 5.11 0 012.812 9.13v3.994h.938a.938.938 0 010 1.875zm15 0H7.5a.938.938 0 010-1.875h10.313V9.131a5.11 5.11 0 01-3.282 1.181.938.938 0 010-1.874 3.281 3.281 0 003.281-3.282v-.468a.938.938 0 011.875 0v9.375a.938.938 0 01-.937.937z"/>
        <path d="M10.313 5.625a2.812 2.812 0 110-5.625 2.812 2.812 0 010 5.625zm0-3.75a.938.938 0 100 1.875.938.938 0 000-1.875zm8.437 3.75a1.875 1.875 0 110-3.75 1.875 1.875 0 010 3.75zm-16.875 0a1.875 1.875 0 110-3.75 1.875 1.875 0 010 3.75z"/>
        <path d="M14.531 10.313a5.166 5.166 0 01-5.156-5.157v-.468a.937.937 0 111.875 0v.468a3.281 3.281 0 003.281 3.282.938.938 0 010 1.874z"/>
    </symbol>
    <symbol viewBox="0 0 8 4" id="darr" xmlns="http://www.w3.org/2000/svg">
        <path fill-rule="evenodd" clip-rule="evenodd"
              d="M.12.175A.5.5 0 00.176.88l3.497 2.998A.5.5 0 004 4a.5.5 0 00.328-.12l3.497-3a.5.5 0 10-.653-.76L4 2.84.828.12A.501.501 0 00.12.176z"/>
    </symbol>
    <symbol viewBox="0 0 16 19" id="del" xmlns="http://www.w3.org/2000/svg">
        <path d="M.5 3.929h15M6.215 7.214v7m3.428-7v7m-7.358-7.5v10.429a1 1 0 001 1h9.429a1 1 0 001-1V6.714M5.715 3.286V2a1 1 0 011-1h2.571a1 1 0 011 1v1.286"/>
    </symbol>
    <symbol viewBox="0 0 16 16" id="discover" xmlns="http://www.w3.org/2000/svg">
        <g clip-path="url(#ara)">
            <path d="M15.094 8.36l-.48-.36.48-.36c1.208-.905 1.208-2.375 0-3.28L10.188.68C9.584.227 8.792 0 8 0c-.792 0-1.584.227-2.188.68L.906 4.36c-1.208.905-1.208 2.375 0 3.28l.48.36-.48.36c-1.208.905-1.208 2.375 0 3.28l4.906 3.68c.604.453 1.396.68 2.188.68.792 0 1.584-.227 2.188-.68l4.906-3.68c1.208-.905 1.208-2.375 0-3.28zM1.806 5.56l4.906-3.68c.322-.242.791-.38 1.288-.38s.966.138 1.288.38l4.906 3.68c.192.143.306.308.306.44s-.114.297-.306.44l-4.906 3.68c-.322.242-.791.38-1.288.38s-.966-.138-1.288-.38L1.806 6.44C1.614 6.298 1.5 6.133 1.5 6s.114-.297.306-.44zm12.388 4.88l-4.906 3.68c-.322.242-.791.38-1.288.38s-.966-.138-1.288-.38l-4.906-3.68c-.192-.143-.306-.308-.306-.44s.114-.297.306-.44l.83-.623 3.176 2.383c.604.453 1.396.68 2.188.68.792 0 1.584-.227 2.188-.68l3.177-2.383.829.622c.192.144.306.309.306.441s-.114.297-.306.44z"/>
        </g>
        <defs>
            <clipPath id="ara">
                <path d="M0 0h16v16H0z"/>
            </clipPath>
        </defs>
    </symbol>
    <symbol viewBox="0 0 13 13" id="earth" xmlns="http://www.w3.org/2000/svg">
        <path fill-rule="evenodd" clip-rule="evenodd"
              d="M5.606 12.205a6.01 6.01 0 006.624-4.514 5.996 5.996 0 00.171-1.59 5.952 5.952 0 00-1.83-4.155A5.98 5.98 0 006.404.258a5.97 5.97 0 00-2.209.42L4.19.68a6.22 6.22 0 00-.247.104l-.014.007a15.966 15.966 0 00-.116.054l-.006.002a1.091 1.091 0 00-.018.009 3.53 3.53 0 00-.198.1l-.03.016a.259.259 0 00-.016.01 5.233 5.233 0 00-.358.21l-.002.002-.016.01-.021.013a2.55 2.55 0 00-.082.054l-.006.005-.003.001a.6.6 0 01-.03.02l-.034.024-.041.028-.045.032a4.505 4.505 0 00-.073.053l-.003.003a1.26 1.26 0 01-.036.027 2.403 2.403 0 00-.07.054l-.053.041-.064.052-.047.039a.293.293 0 00-.006.005l-.044.037a.255.255 0 00-.007.006l-.02.017a1.591 1.591 0 00-.088.077 3.16 3.16 0 00-.04.037l-.02.019-.03.026-.008.008a10.814 10.814 0 00-.077.074l-.016.016a6.716 6.716 0 00-.048.048l-.037.037-.021.02a5.615 5.615 0 01-.035.037l-.002.003-.003.002a5.936 5.936 0 00-.04.044h-.002a6.263 6.263 0 00-.106.116l-.008.01a6.521 6.521 0 00-.07.082l-.003.003-.002.003a5.898 5.898 0 00-.463.626 5.965 5.965 0 00-.962 3.255A5.988 5.988 0 002.861 11.1l.002.002.004.003c.11.08.227.16.349.236l.003.003a6.103 6.103 0 00.375.217l.011.006c.13.068.259.13.385.185l.01.005a6 6 0 00.396.156l.012.005h.002l.002.001a6.222 6.222 0 00.408.127l.01.003a2.292 2.292 0 00.202.05c.077.019.155.035.233.05l.004.001.006.002a5.921 5.921 0 00.33.053zm.26-.49a5.492 5.492 0 005.775-3.836l-1.362-.28c.16.595.14 1.042-.06 1.36-.175.274-.47.432-.88.469a.261.261 0 01-.046 0c-.897-.078-1.763-.52-2.576-1.317-.188.3-.406.483-.59.638h-.001c-.285.24-.474.398-.504.891l.244 2.074zm-.686-.112l.156.033-.23-1.957a.258.258 0 01-.002-.044c.037-.735.369-1.013.69-1.282.233-.196.454-.381.62-.78a.259.259 0 01.429-.076c.8.869 1.609 1.332 2.472 1.413.231-.024.384-.1.466-.229.105-.166.168-.532-.126-1.335a.259.259 0 01.295-.343l1.818.373c.069-.36.11-.781.116-1.05v-.008l.001-.06c0-.05 0-.1-.002-.15a5.463 5.463 0 00-1.502-3.619c-.808.522-1.73.97-2.657.452a.264.264 0 01-.02-.013c-.35-.24-.596-.101-1.036.188-.261.171-.557.365-.902.404a.259.259 0 01-.283-.21c-.18-.952-.555-1.607-1.211-2.103a5.515 5.515 0 00-2.338 1.88l.635.634 1.352-.375a.26.26 0 01.055-.009c.431-.023.816.184 1.084.582.395.585.463 1.475.163 2.116a.259.259 0 01-.07.09c-.509.42-.898.35-1.274.283-.277-.05-.59-.106-1.056.003L1.16 7.86a5.505 5.505 0 003.747 3.672l.049.013.006.002c.072.02.145.038.218.055zM1.02 7.296l1.51-1.317a.259.259 0 01.106-.056c.609-.155 1.011-.083 1.334-.024.336.06.512.092.808-.136.196-.477.137-1.134-.147-1.555-.112-.166-.306-.359-.601-.355l-1.469.408a.259.259 0 01-.252-.067l-.661-.662a5.49 5.49 0 00-.628 3.764zm3.817-6.293c.546.495.901 1.125 1.097 1.94.147-.061.295-.159.45-.26.426-.28.955-.627 1.602-.189.333.183.682.207 1.1.078.303-.094.612-.264.91-.451A5.46 5.46 0 006.403.776c-.544 0-1.07.08-1.566.227z"/>
    </symbol>
    <symbol viewBox="0 0 16 16" id="exclam" xmlns="http://www.w3.org/2000/svg">
        <circle cx="8" cy="8" r="8"/>
        <path d="M8.87 4l-.153 5.602h-1.43L7.131 4h1.738zm-.868 8.102a.913.913 0 01-.664-.274.892.892 0 01-.274-.664.876.876 0 01.274-.656.912.912 0 01.664-.274c.247 0 .465.091.652.274a.896.896 0 01.149 1.129c-.086.14-.2.254-.34.34a.888.888 0 01-.461.125z"/>
    </symbol>
    <symbol viewBox="0 0 11 12" id="exclamation" xmlns="http://www.w3.org/2000/svg">
        <path fill-rule="evenodd" clip-rule="evenodd"
              d="M5.5 11.086c3.038 0 5.5-2.487 5.5-5.555C11 2.844 9.111.603 6.602.087v4.344a1.1 1.1 0 11-2.2 0V.086C1.89.6 0 2.843 0 5.531c0 3.068 2.462 5.555 5.5 5.555zm1.102-3.333c0 .614-.493 1.111-1.1 1.111-.608 0-1.1-.497-1.1-1.11 0-.614.492-1.112 1.1-1.112.607 0 1.1.498 1.1 1.111z"/>
    </symbol>
    <symbol viewBox="0 0 13 12" id="exclamation_gray" xmlns="http://www.w3.org/2000/svg">
        <path fill-rule="evenodd" clip-rule="evenodd"
              d="M6.781 12c3.314 0 6-2.714 6-6.061 0-2.931-2.06-5.377-4.798-5.94v4.74a1.2 1.2 0 11-2.4 0v-4.74C2.843.559.782 3.006.782 5.939c0 3.347 2.687 6.06 6 6.06zm1.203-3.637c0 .67-.538 1.212-1.2 1.212-.663 0-1.2-.543-1.2-1.212 0-.67.537-1.212 1.2-1.212.662 0 1.2.542 1.2 1.212z"/>
    </symbol>
    <symbol viewBox="0 0 21 16" id="eye" xmlns="http://www.w3.org/2000/svg">
        <path d="M19.125 11.625h-1.75v-1.75a.875.875 0 00-1.75 0l.031 1.75h-1.781a.875.875 0 000 1.75l1.781-.031-.031 1.781a.875.875 0 001.75 0v-1.781l1.75.031a.875.875 0 000-1.75zM13 8a2.5 2.5 0 11-5 0 2.5 2.5 0 015 0z"/>
        <path fill-rule="evenodd" clip-rule="evenodd"
              d="M2.253 8.629A15.221 15.221 0 011.873 8 16.57 16.57 0 014.03 5.052c1.566-1.698 3.757-3.274 6.47-3.274s4.904 1.576 6.471 3.274A16.577 16.577 0 0119.127 8H21a.902.902 0 00-.093-.398v-.003l-.004-.006-.01-.02a16.449 16.449 0 00-.675-1.167 18.35 18.35 0 00-1.97-2.57C16.534 1.98 13.912 0 10.5 0S4.466 1.98 2.752 3.837A18.345 18.345 0 00.275 7.258a11.023 11.023 0 00-.168.314l-.01.02-.003.006V7.6s-.003.002.78.4l-.783-.398a.902.902 0 000 .796l.002.003.003.006.01.02a6.628 6.628 0 00.168.314 18.345 18.345 0 002.478 3.422C4.465 14.022 7.087 16 10.5 16v-1.778c-2.713 0-4.904-1.576-6.471-3.274a16.57 16.57 0 01-1.776-2.32zm18.654-1.027L20.125 8l.782-.398z"/>
    </symbol>
    <symbol viewBox="0 0 19 13" id="eye-view" xmlns="http://www.w3.org/2000/svg">
        <path d="M9.394 13a7.65 7.65 0 01-5.439-2.254L.214 7.012a.722.722 0 010-1.025l3.741-3.734a7.692 7.692 0 0110.877 0l3.742 3.734a.723.723 0 010 1.025l-3.742 3.734A7.65 7.65 0 019.395 13zm-7.65-6.5l3.23 3.228a6.262 6.262 0 008.84 0L17.043 6.5l-3.229-3.228a6.262 6.262 0 00-8.84 0L1.744 6.5z"/>
        <path d="M9.394 9.389a2.89 2.89 0 110-5.779 2.89 2.89 0 010 5.779zm0-4.334a1.445 1.445 0 100 2.889 1.445 1.445 0 000-2.889z"/>
    </symbol>
    <symbol viewBox="0 0 19 16" id="favorite" xmlns="http://www.w3.org/2000/svg">
        <path d="M16.01 2.019a4.335 4.335 0 010 6.126l-6.684 6.69c-.09.09-.183.175-.278.256a3.008 3.008 0 01-.286-.255l-.002-.002-6.722-6.689h-.001C.34 6.444.316 3.701 1.997 2.018c1.69-1.692 4.51-1.692 6.199 0l.033.033.037.029.357.277.523.407.468-.468.278-.278a4.323 4.323 0 016.119 0z"/>
    </symbol>
    <symbol id="fb" viewBox="0 0 16 16" xmlns="http://www.w3.org/2000/svg">
        <style>.azst0{fill:#545761}</style>
        <path class="azst0"
              d="M8.028 0C3.562 0 0 3.549 0 8c0 3.831 2.77 7.099 6.445 7.831v-5.409H5.201V8.338h1.244V7.099c0-1.69.735-2.704 2.714-2.704h1.696V6.48H9.781c-.792 0-.848.282-.848.845v1.071h1.922l-.226 2.085H8.933V16C12.89 15.549 16 12.169 16 8.056 16 3.549 12.438 0 8.028 0z"/>
    </symbol>
    <symbol viewBox="0 0 14 16" id="fire" xmlns="http://www.w3.org/2000/svg">
        <path d="M5.64 16S0 15.208 0 10.65C0 6.09 7.374 5.655 5.742 0c0 0 5.521 1.64 4.173 6.744 0 0 .73-.442 1.29-1.304 0 0 2.795 2.05 2.795 5.167 0 3.119-3.875 5.412-5.711 5.391 0 0 1.98-2.538.178-4.174C5.91 9.502 7 8.01 7 8.01S.766 10.904 5.64 16z"/>
    </symbol>
    <symbol viewBox="0 0 16 16" id="flash" xmlns="http://www.w3.org/2000/svg">
        <path fill-rule="evenodd" clip-rule="evenodd"
              d="M11.788.954L9.52 5.783h3.88L5.525 13.95l1.607-5.833H4.4L7.414.03C3.271.331 0 3.779 0 8A8 8 0 1011.788.954z"/>
    </symbol>
    <symbol viewBox="0 0 14 13" id="flask" xmlns="http://www.w3.org/2000/svg">
        <path d="M13.745 9.996L9.333 3.224V1.19h.678a.595.595 0 000-1.19H3.989a.595.595 0 100 1.19h.678v2.034L.254 9.996a1.967 1.967 0 00-.254.968C0 12.088.95 13 2.121 13h9.758C13.05 13 14 12.088 14 10.964c0-.35-.092-.68-.255-.968zM3.632 7.5l2.52-3.867V1.19h1.696v2.443l2.52 3.867H3.632z"/>
    </symbol>
    <symbol viewBox="0 0 20 20" id="history" xmlns="http://www.w3.org/2000/svg">
        <path d="M10.834 2.5a7.5 7.5 0 00-7.5 7.5h-2.5l3.242 3.242.058.116L7.501 10H5a5.83 5.83 0 015.833-5.833A5.829 5.829 0 0116.667 10a5.829 5.829 0 01-5.833 5.833 5.786 5.786 0 01-4.117-1.716L5.534 15.3a7.462 7.462 0 005.3 2.2 7.5 7.5 0 000-15zm-.833 4.167v4.166l3.566 2.117.6-1.008-2.916-1.734V6.667H10z"/>
    </symbol>
    <symbol viewBox="0 0 13 14" id="home" xmlns="http://www.w3.org/2000/svg">
        <path d="M6.361 0L0 5.727V14h5.088v-3.818h2.548V14h5.091V5.727L6.361 0z"/>
    </symbol>
    <symbol viewBox="0 0 24 24" id="hr-filter" xmlns="http://www.w3.org/2000/svg">
        <path fill-rule="evenodd" clip-rule="evenodd"
              d="M6.75 5a2.75 2.75 0 100 5.5 2.75 2.75 0 000-5.5zM5.5 7.75a1.25 1.25 0 112.5 0 1.25 1.25 0 01-2.5 0z"/>
        <path d="M11.75 7a.75.75 0 000 1.5h8a.75.75 0 000-1.5h-8z"/>
        <path fill-rule="evenodd" clip-rule="evenodd"
              d="M17.75 13a2.75 2.75 0 100 5.5 2.75 2.75 0 000-5.5zm-1.25 2.75a1.25 1.25 0 112.5 0 1.25 1.25 0 01-2.5 0z"/>
        <path d="M4.75 15a.75.75 0 000 1.5h8a.75.75 0 000-1.5h-8z"/>
    </symbol>
    <symbol id="ig" viewBox="0 0 16 16" xmlns="http://www.w3.org/2000/svg">
        <style>.bgst0{fill:#545761}</style>
        <path class="bgst0"
              d="M13.231 3.73a.96.96 0 11-1.92 0 .96.96 0 011.92 0zM8 10.667a2.667 2.667 0 110-5.333 2.667 2.667 0 010 5.333zm0-6.775a4.108 4.108 0 100 8.215 4.108 4.108 0 000-8.215zm0-2.45c2.136 0 2.389.008 3.233.047.78.036 1.203.166 1.486.275.373.145.64.318.92.598.28.28.453.546.598.92.11.282.24.706.275 1.486.038.844.047 1.097.047 3.233s-.008 2.389-.047 3.233c-.036.78-.166 1.203-.275 1.486a2.48 2.48 0 01-.598.92c-.28.28-.546.453-.92.598-.282.11-.706.24-1.486.275-.843.038-1.097.047-3.233.047s-2.389-.008-3.233-.047c-.78-.036-1.203-.166-1.486-.275a2.48 2.48 0 01-.92-.598 2.472 2.472 0 01-.598-.92c-.109-.282-.24-.705-.275-1.486-.038-.844-.047-1.097-.047-3.233s.008-2.389.047-3.233c.036-.781.166-1.204.275-1.486a2.48 2.48 0 01.598-.92c.28-.28.546-.453.92-.598.282-.11.705-.24 1.486-.276.844-.038 1.097-.046 3.233-.046zM8 0C5.827 0 5.555.009 4.702.048 3.85.087 3.269.222 2.76.42a3.916 3.916 0 00-1.417.923A3.942 3.942 0 00.42 2.76C.223 3.269.087 3.85.048 4.701.009 5.555 0 5.827 0 8s.009 2.445.048 3.299c.039.852.174 1.433.372 1.942.204.526.478.972.923 1.417.445.445.891.718 1.417.923.509.198 1.09.333 1.942.372C5.555 15.991 5.827 16 8 16s2.445-.009 3.299-.048c.852-.039 1.433-.174 1.942-.372.526-.204.972-.478 1.417-.923s.718-.891.923-1.417c.198-.509.333-1.09.372-1.942.038-.853.047-1.125.047-3.298s-.009-2.445-.048-3.298c-.039-.852-.174-1.433-.372-1.942-.204-.526-.478-.972-.923-1.417S13.766.625 13.24.42c-.509-.198-1.09-.333-1.942-.372C10.445.009 10.173 0 8 0z"/>
    </symbol>
    <symbol viewBox="0 0 11 11" id="larr" xmlns="http://www.w3.org/2000/svg">
        <path d="M5.526 10.368l1.024-1.02-3.067-3.062h7.452V4.805H3.483L6.55 1.737 5.526.723.703 5.545l4.823 4.823z"/>
    </symbol>
    <symbol id="linkedin" viewBox="0 0 16 16" xmlns="http://www.w3.org/2000/svg">
        <style>.bist0{fill:#545761}</style>
        <path class="bist0"
              d="M8 0a8 8 0 100 16A8 8 0 008 0zM6.027 10.665H4.586V6.05h1.441v4.615zm-.758-5.194h-.011c-.523 0-.861-.353-.861-.802 0-.457.349-.802.88-.802s.857.345.869.798c.003.453-.335.806-.877.806zm6.53 5.194h-1.638V8.278c0-.624-.256-1.05-.817-1.05-.431 0-.668.286-.78.564-.039.1-.032.237-.032.378v2.498H6.91s.022-4.228 0-4.614h1.618v.724c.097-.316.613-.768 1.441-.768 1.024 0 1.83.664 1.83 2.094v2.561z"/>
    </symbol>
    <symbol viewBox="0 0 13 12" id="list" xmlns="http://www.w3.org/2000/svg">
        <path fill-rule="evenodd" clip-rule="evenodd"
              d="M3.877 1.579a1.579 1.579 0 11-3.158 0 1.579 1.579 0 013.158 0zM11.14.316H6.72a1.264 1.264 0 00-.001 2.526h4.421a1.264 1.264 0 000-2.526zm-4.42 4.42h4.42a1.264 1.264 0 010 2.526H6.72A1.264 1.264 0 015.456 6c0-.697.566-1.263 1.263-1.263zm0 4.422h4.42a1.264 1.264 0 010 2.526H6.72a1.264 1.264 0 01-1.264-1.263c0-.697.566-1.263 1.263-1.263zM3.876 10.42a1.579 1.579 0 11-3.158 0 1.579 1.579 0 013.158 0zm-1.58-2.842a1.579 1.579 0 100-3.158 1.579 1.579 0 000 3.158z"/>
    </symbol>
    <symbol viewBox="0 0 15 15" id="loupe" xmlns="http://www.w3.org/2000/svg">
        <path fill-rule="evenodd" clip-rule="evenodd"
              d="M6.946 0a6.946 6.946 0 100 13.892 6.9 6.9 0 003.993-1.272l2.024 2.023c.21.21.456.357.84.357.661 0 1.197-.535 1.197-1.197 0-.262-.07-.552-.358-.84L12.62 10.94a6.905 6.905 0 001.271-3.994A6.946 6.946 0 006.946 0zm-4.55 6.946a4.55 4.55 0 119.1 0 4.55 4.55 0 11-9.1 0z"/>
    </symbol>
    <symbol viewBox="0 0 15 12" id="mail" xmlns="http://www.w3.org/2000/svg">
        <path d="M12.667 0H2a2 2 0 00-2 2v8a2 2 0 002 2h10.667a2 2 0 002-2V2a2 2 0 00-2-2zm0 1.333a.66.66 0 01.217.04l-5.55 4.44-5.551-4.44A.661.661 0 012 1.333h10.667zm0 9.334H2A.667.667 0 011.333 10V2.72l5.584 4.467a.665.665 0 00.833 0l5.583-4.467V10a.666.666 0 01-.666.667z"/>
    </symbol>
    <symbol viewBox="0 0 11 13" id="map_point" xmlns="http://www.w3.org/2000/svg">
        <path d="M9.38 1.577c-2.137-2.103-5.603-2.103-7.74 0a5.324 5.324 0 000 7.615L5.51 13l3.87-3.808a5.323 5.323 0 000-7.615zM5.51 7.184a1.713 1.713 0 010-3.421 1.713 1.713 0 010 3.421z"/>
    </symbol>
    <symbol viewBox="0 0 18 12" id="metro" xmlns="http://www.w3.org/2000/svg">
        <path d="M8.518 12l2.769-4.812 1.15 3.26h-.929v1.433h5.529v-1.434h-1.055L12.01 0 8.518 6.432 5.027 0 1.055 10.447H0v1.434h5.529v-1.434H4.6l1.15-3.259L8.517 12z"/>
    </symbol>
    <symbol viewBox="0 0 12 4" id="minus" xmlns="http://www.w3.org/2000/svg">
        <rect x="12" y=".5" width="3" height="12" rx="1.5" transform="rotate(90 12 .5)"/>
    </symbol>
    <symbol viewBox="0 0 9.501 8.273" id="nav-next-dark" xmlns="http://www.w3.org/2000/svg">
        <path d="M5.364 0l4.137 4.136-4.137 4.137-.71-.702L7.58 4.644H0V3.63h7.58L4.654.71z"/>
    </symbol>
    <symbol viewBox="0 0 9.501 8.273" id="nav-next-grey" xmlns="http://www.w3.org/2000/svg">
        <path d="M5.365 8.273l-.711-.702L7.58 4.644H0V3.63h7.58L4.654.71l.71-.71 4.137 4.136z"/>
    </symbol>
    <symbol viewBox="0 0 9.501 8.273" id="nav-next-white" xmlns="http://www.w3.org/2000/svg">
        <path d="M5.364 0l4.137 4.136-4.137 4.137-.71-.702L7.58 4.644H0V3.63h7.58L4.654.71z"/>
    </symbol>
    <symbol viewBox="0 0 9.501 8.273" id="nav-prev-dark" xmlns="http://www.w3.org/2000/svg">
        <path d="M4.137 8.273L0 4.137 4.137 0l.71.702-2.926 2.927H9.5v1.015H1.92l2.926 2.918z"/>
    </symbol>
    <symbol viewBox="0 0 9.501 8.273" id="nav-prev-grey" xmlns="http://www.w3.org/2000/svg">
        <path d="M4.137 0l.71.702-2.926 2.927H9.5v1.015H1.92l2.927 2.918-.711.71L0 4.137z"/>
    </symbol>
    <symbol viewBox="0 0 9.501 8.273" id="nav-prev-white" xmlns="http://www.w3.org/2000/svg">
        <path d="M4.137 8.273L0 4.137 4.137 0l.71.702-2.926 2.927H9.5v1.015H1.92l2.926 2.918z"/>
    </symbol>
    <symbol viewBox="0 0 16 16" id="no" xmlns="http://www.w3.org/2000/svg">
        <path d="M11.753 7.998l3.46-3.435a2.674 2.674 0 00-3.78-3.78L8 4.243 4.567.784a2.672 2.672 0 10-3.78 3.78l3.46 3.435-3.46 3.434a2.662 2.662 0 000 3.78 2.663 2.663 0 003.78 0L8 11.753l3.433 3.46a2.663 2.663 0 003.78 0 2.66 2.66 0 000-3.78l-3.46-3.434z"/>
    </symbol>
    <symbol viewBox="0 0 24 24" id="none" xmlns="http://www.w3.org/2000/svg">
        <path d="M12 0a12 12 0 1012 12A12.013 12.013 0 0012 0zm0 3a8.927 8.927 0 015.2 1.68L4.68 17.198A8.973 8.973 0 0112 3zm0 18a8.927 8.927 0 01-5.2-1.68L19.32 6.802A8.972 8.972 0 0112 21z"/>
    </symbol>
    <symbol id="ok" viewBox="0 0 16 16" xmlns="http://www.w3.org/2000/svg">
        <style>.bxst0{fill:#545761}</style>
        <path class="bxst0"
              d="M6.847 5.301a1.2 1.2 0 112.401.001 1.2 1.2 0 01-2.401-.001zM16 2.341v11.317A2.335 2.335 0 0113.671 16H2.329A2.335 2.335 0 010 13.659V2.341A2.335 2.335 0 012.329 0H13.67A2.335 2.335 0 0116 2.341zM5.143 5.301a2.904 2.904 0 105.808 0 2.904 2.904 0 00-5.808 0zm3.93 5.215c1.163-.237 1.859-.787 1.896-.817a.79.79 0 00-.988-1.232c-.007.005-.751.575-1.973.576-1.223-.001-1.982-.571-1.989-.576a.79.79 0 00-.988 1.232c.037.03.763.595 1.958.826l-1.666 1.741a.79.79 0 101.136 1.096l1.547-1.648 1.704 1.659a.79.79 0 101.116-1.118l-1.753-1.739z"/>
    </symbol>
    <symbol viewBox="0 0 40 40" id="ok--circle" xmlns="http://www.w3.org/2000/svg">
        <path fill-rule="evenodd" clip-rule="evenodd"
              d="M20 40c11.046 0 20-8.954 20-20S31.046 0 20 0 0 8.954 0 20s8.954 20 20 20zm-1.9-15.887a8.71 8.71 0 01-2.706-1.12 1.368 1.368 0 01-.458-1.872 1.36 1.36 0 011.884-.47 6.095 6.095 0 002.084.813c1.47.264 2.851.02 4.139-.736.262-.155.527-.276.84-.275.608.004 1.14.393 1.317.971a1.36 1.36 0 01-.56 1.545 8.553 8.553 0 01-2.68 1.131l-.057.015.01.01c.033.036.06.066.089.094l.76.761c.571.57 1.142 1.14 1.711 1.711.482.483.583 1.145.263 1.697-.46.795-1.518.927-2.18.268a454.388 454.388 0 01-1.701-1.7h-.001l-.755-.755a1.688 1.688 0 01-.07-.076l-.052-.056-.024.047a.281.281 0 01-.048.079c-.82.823-1.64 1.645-2.463 2.464-.565.564-1.428.56-1.975-.002a1.368 1.368 0 01-.03-1.869c.053-.06.11-.118.168-.175l.037-.037.943-.943a3157.246 3157.246 0 001.465-1.468 7.32 7.32 0 01.05-.052zm6.586-8.51a4.694 4.694 0 00-4.684-4.685 4.69 4.69 0 00-4.689 4.695 4.677 4.677 0 004.69 4.677 4.682 4.682 0 004.683-4.686zm-4.673-1.936a1.937 1.937 0 011.925 1.941c0 1.084-.871 1.936-1.976 1.935-1.042 0-1.906-.887-1.904-1.952.002-1.063.879-1.926 1.955-1.924z"/>
    </symbol>
    <symbol id="pdf" viewBox="0 0 24 32" xmlns="http://www.w3.org/2000/svg">
        <style>.byst0{fill:#545761}</style>
        <path class="byst0"
              d="M2.076 23.621h2.046c2.196 0 3.51-1.508 3.51-3.315s-1.314-3.316-3.51-3.316H0v10.635h2.076v-4.004zm0-4.779h1.941c.941 0 1.538.598 1.538 1.464s-.598 1.449-1.538 1.449H2.076v-2.913zm13.201-.837c-.701-.702-1.702-1.016-2.808-1.016H8.631v10.635h3.838c1.106 0 2.107-.314 2.808-1.016 1.195-1.195 1.076-2.748 1.076-4.346 0-1.598.119-3.061-1.076-4.257zm-1.448 7.11c-.358.433-.836.657-1.554.657h-1.568v-6.931h1.568c.717 0 1.195.224 1.554.657.388.478.448 1.15.448 2.763s-.06 2.376-.448 2.854zm5.973-6.273v2.614h4.197v1.852h-4.197v4.317h-2.076V16.99h6.273v1.852h-4.197zM0 29.812h24V32H0v-2.188zM23.914 8.976a1.07 1.07 0 00-.183-.273c-.02-.024-.03-.055-.052-.078L15.374.32c-.021-.021-.05-.029-.073-.049a1.07 1.07 0 00-.279-.186A1.095 1.095 0 0014.601 0H3.654A3.658 3.658 0 000 3.654v11.107h2.188V3.654a1.469 1.469 0 011.467-1.467h9.852v4.651a3.658 3.658 0 003.654 3.654h4.651v4.268H24V9.399c0-.147-.03-.29-.086-.423zm-8.22-2.137V3.734l4.571 4.571H17.16a1.468 1.468 0 01-1.466-1.466z"/>
    </symbol>
    <symbol viewBox="0 0 27 32" id="pdf1" xmlns="http://www.w3.org/2000/svg">
        <path d="M22.207 32H3.99A3.994 3.994 0 010 28.011V3.99A3.994 3.994 0 013.989 0h11.948c.317 0 .62.126.844.35l9.065 9.065a1.194 1.194 0 01.35.844V28.01A3.993 3.993 0 0122.207 32zM3.99 2.388a1.602 1.602 0 00-1.6 1.6v24.023a1.602 1.602 0 001.6 1.6h18.218a1.602 1.602 0 001.601-1.6V10.753l-8.366-8.365H3.989z"/>
        <path d="M25.002 11.453h-6.271a3.993 3.993 0 01-3.989-3.989v-6.27a1.194 1.194 0 012.388 0v6.27a1.603 1.603 0 001.601 1.601h6.27a1.194 1.194 0 110 2.388h.001zm-20.44 6.008c0-.263.238-.495.61-.495h2.176c1.39 0 2.486.654 2.486 2.424v.053c0 1.77-1.138 2.444-2.592 2.444h-1.04v2.276c0 .338-.411.506-.823.506s-.817-.168-.817-.506v-6.702zm1.643.938v2.223h1.043c.59 0 .949-.336.949-1.053v-.116c0-.716-.36-1.054-.949-1.054H6.205zm6.929-1.433c1.455 0 2.593.674 2.593 2.487v2.73c0 1.811-1.138 2.486-2.593 2.486H11.27c-.431 0-.716-.232-.716-.495V17.46c0-.263.285-.495.716-.495h1.865zm-.938 1.433v4.837h.938c.59 0 .95-.337.95-1.053v-2.73c0-.716-.36-1.054-.95-1.054h-.938zm4.574-.926c0-.338.358-.507.716-.507h3.656c.348 0 .496.37.496.706 0 .39-.18.727-.496.727h-2.73v1.782h1.592c.319 0 .495.304.495.642 0 .284-.147.622-.495.622h-1.592v2.718c0 .338-.41.506-.821.506-.41 0-.822-.168-.822-.506v-6.69z"/>
    </symbol>
    <symbol viewBox="0 0 40 24" id="pdf2" xmlns="http://www.w3.org/2000/svg">
        <rect width="40" height="24" rx="3"/>
        <path d="M9.136 16h1.581v-2.949h1.67c2.016 0 3.099-1.21 3.099-2.89 0-1.665-1.07-2.888-3.077-2.888H9.136V16zm1.581-4.249V8.594h1.449c1.185 0 1.709.639 1.709 1.568s-.524 1.59-1.7 1.59h-1.458zm9.1 4.249c2.658 0 4.235-1.645 4.235-4.372 0-2.719-1.577-4.355-4.176-4.355h-3.017V16h2.957zm-1.377-1.368V8.641h1.346c1.773 0 2.698.988 2.698 2.987 0 2.007-.925 3.004-2.745 3.004h-1.3zM25.554 16h1.581v-3.707h3.627v-1.326h-3.627V8.598h4.01V7.273h-5.59V16z"/>
        <defs>
            <linearGradient id="caa" x1="40" y1="12" x2=".17" y2="9.395" gradientUnits="userSpaceOnUse">
                <stop stop-color="#33945D"/>
                <stop offset="1" stop-color="#007934"/>
            </linearGradient>
        </defs>
    </symbol>
    <symbol viewBox="0 0 19 18" id="phone" xmlns="http://www.w3.org/2000/svg">
        <path d="M9.819 0a9 9 0 100 18 9 9 0 000-18zm5.144 12.155c-.257.726-1.146 1.456-1.904 1.449-.107-.03-.319-.062-.508-.144-3.334-1.435-5.755-3.787-7.131-7.165-.462-1.132.02-2.088 1.182-2.48a.9.9 0 01.619.001C7.717 4 8.972 5.727 9 6.244c.021.397-.248.612-.516.793-.505.343-.508.779-.292 1.264.488 1.097 1.322 1.85 2.4 2.34.392.178.766.16 1.034-.245.476-.722 1.06-.687 1.698-.238.32.224.645.444.949.69.413.331.936.609.689 1.307z"/>
    </symbol>
    <symbol viewBox="0 0 12 12" id="phone_get" xmlns="http://www.w3.org/2000/svg">
        <path fill-rule="evenodd" clip-rule="evenodd"
              d="M6.667 4H5.333v1.333h1.334V4zm2.666 0H8v1.333h1.333V4zm2 4.333c-.8 0-1.6-.133-2.4-.4-.2-.066-.466 0-.666.134L6.8 9.533C4.933 8.6 3.4 7 2.4 5.133l1.467-1.466c.2-.2.266-.467.133-.667A8.966 8.966 0 013.667.667C3.667.267 3.4 0 3 0H.667C.267 0 0 .267 0 .667A11.324 11.324 0 0011.333 12c.4 0 .667-.267.667-.667V9c0-.4-.267-.667-.667-.667zM10.667 4v1.333H12V4h-1.333z"/>
    </symbol>
    <symbol viewBox="0 0 16 16" id="plan" xmlns="http://www.w3.org/2000/svg">
        <path d="M2.5 2.25a1.25 1.25 0 11-2.5 0 1.25 1.25 0 012.5 0zM1.25 12.5a1.25 1.25 0 100 2.5 1.25 1.25 0 000-2.5zm0-5.75a1.25 1.25 0 100 2.5 1.25 1.25 0 000-2.5zm4-3.75h10a.75.75 0 000-1.5h-10a.75.75 0 000 1.5zm0 5.75h5a.75.75 0 000-1.5h-5a.75.75 0 000 1.5zm10 4.25h-10a.75.75 0 000 1.5h10a.75.75 0 000-1.5z"/>
    </symbol>
    <symbol viewBox="0 0 12 14" id="play" xmlns="http://www.w3.org/2000/svg">
        <path d="M0 0v14l11.375-7L0 0z"/>
    </symbol>
    <symbol viewBox="0 0 12 12" id="plus" xmlns="http://www.w3.org/2000/svg">
        <rect x="4.5" width="3" height="12" rx="1.5"/>
        <rect x="12" y="4.5" width="3" height="12" rx="1.5" transform="rotate(90 12 4.5)"/>
    </symbol>
    <symbol viewBox="0 0 8 10" id="puzzle" xmlns="http://www.w3.org/2000/svg">
        <path d="M8 3.5c0-.55-.45-1-1-1H5.4c-.2 0-.3-.2-.2-.35.15-.3.3-.65.3-.9C5.5.55 4.95 0 4.25 0S3 .55 3 1.25c0 .25.15.6.3.9.1.15-.05.35-.2.35H1c-.55 0-1 .45-1 1v1.2c0 .3.3.55.6.45.25-.1.5-.15.65-.15.7 0 1.25.55 1.25 1.25S1.95 7.5 1.25 7.5c-.15 0-.4-.05-.65-.15-.3-.05-.6.15-.6.45V9c0 .55.45 1 1 1h6c.55 0 1-.45 1-1V3.5z"/>
    </symbol>
    <symbol viewBox="0 0 8 14" id="rarr" xmlns="http://www.w3.org/2000/svg">
        <path fill-rule="evenodd" clip-rule="evenodd"
              d="M.35 13.789c.419.315 1.051.273 1.411-.095l5.998-6.12A.812.812 0 008 7a.812.812 0 00-.241-.573L1.76.306C1.401-.062.77-.104.35.21c-.42.316-.468.87-.108 1.237L5.681 7l-5.44 5.552c-.36.367-.311.921.108 1.237z"/>
    </symbol>
    <symbol viewBox="0 0 19 18" id="rate" xmlns="http://www.w3.org/2000/svg">
        <path d="M5.252 11.246l.354-.484-.001-.001-.003-.002-.01-.007-.04-.03-.152-.11-.543-.397-1.655-1.209A683.444 683.444 0 00.697 7.182a.166.166 0 01-.069-.135c0-.053.022-.104.056-.14a.13.13 0 01.095-.046h6.502l.134-.415L9.262.74l.004-.01.003-.012A.156.156 0 019.42.6c.068 0 .13.044.15.117l.003.012.004.012 1.855 5.705.135.415h6.501c.029 0 .06.01.09.043a.207.207 0 01.054.14c0 .061-.03.11-.07.138a6739.581 6739.581 0 00-4.16 3.033l-.543.396-.151.111-.04.03-.01.007-.003.002.353.485m-8.335 0l.57.186v.004l-.005.012-.015.047-.059.18-.208.639L4.9 14.26a557.79 557.79 0 01-.95 2.898h.001a.265.265 0 00-.016.078.16.16 0 00.159.163.163.163 0 00.09-.028l4.882-3.555.353-.257.354.257-.354.485.354-.485.003.003.01.007.04.03.152.11.543.396 1.656 1.205 1.676 1.22.569.415.168.122.05.035.014.01v.001c.031.02.062.029.09.029.084 0 .16-.072.16-.163a.247.247 0 00-.016-.075c-.073-.215-.52-1.586-.95-2.901l-.634-1.947-.209-.64-.058-.179-.015-.047-.004-.012-.001-.003v-.001l.57-.186m-8.335 0l.354-.484.351.256-.135.414-.57-.186zm8.335 0l-.57.186-.135-.414.351-.256.354.484z"/>
    </symbol>
    <symbol viewBox="0 0 1000 1000" id="reset" xmlns="http://www.w3.org/2000/svg">
        <path d="M500 10v392l196-196L500 10z"/>
        <path d="M500 990C271.3 990 85.1 803.8 85.1 575.1S271.3 160.2 500 160.2v91.5c-176.4 0-323.4 143.7-323.4 323.4S320.3 898.5 500 898.5s323.4-143.7 323.4-323.4h91.5C914.9 803.8 728.7 990 500 990z"/>
    </symbol>
    <symbol viewBox="0 0 16 16" id="reviews" xmlns="http://www.w3.org/2000/svg">
        <path d="M8 0a8 8 0 00-8 8c0 1.636.499 3.152 1.343 4.419L0 16h8A8 8 0 108 0zm0 14.5l-4.655-.002-1.171-.001.39-1.052.47-1.261a6.566 6.566 0 01-.607-.856c-.048-.08-.086-.167-.13-.25A6.427 6.427 0 011.5 8c0-3.584 2.916-6.5 6.5-6.5s6.5 2.916 6.5 6.5-2.916 6.5-6.5 6.5zm3.25-5a.75.75 0 01-.75.75h-5a.75.75 0 010-1.5h5a.75.75 0 01.75.75zm0-3a.75.75 0 01-.75.75h-5a.75.75 0 010-1.5h5a.75.75 0 01.75.75z"/>
    </symbol>
    <symbol viewBox="0 0 11 11" id="right_arrow" xmlns="http://www.w3.org/2000/svg">
        <path d="M5.802 10.368l4.822-4.823L5.802.723l-1.024 1.02 3.067 3.062H.393v1.481h7.452L4.778 9.354l1.024 1.014z"/>
    </symbol>
    <symbol viewBox="0 0 16 16" id="sales" xmlns="http://www.w3.org/2000/svg">
        <path fill-rule="evenodd" clip-rule="evenodd"
              d="M8 0a8 8 0 100 16A8 8 0 008 0zM4.667 5.083a.417.417 0 11.833 0 .417.417 0 01-.833 0zM5.083 3a2.083 2.083 0 100 4.167 2.083 2.083 0 000-4.167zm6.84 2.256a.833.833 0 00-1.179-1.179l-6.667 6.667a.833.833 0 101.179 1.179l6.667-6.667zM10.917 10.5a.417.417 0 100 .833.417.417 0 000-.833zm-2.084.417a2.083 2.083 0 114.167 0 2.083 2.083 0 01-4.167 0z"/>
    </symbol>
    <symbol viewBox="0 0 16 12" id="sandwich" xmlns="http://www.w3.org/2000/svg">
        <path fill-rule="evenodd" clip-rule="evenodd"
              d="M1 0a1 1 0 100 2h14a1 1 0 100-2H1zM0 6a1 1 0 011-1h14a1 1 0 110 2H1a1 1 0 01-1-1zm0 5a1 1 0 011-1h14a1 1 0 110 2H1a1 1 0 01-1-1z"/>
    </symbol>
    <symbol viewBox="0 0 12 12" id="scale" xmlns="http://www.w3.org/2000/svg">
        <path d="M5 1a1 1 0 001 1h4v4a1 1 0 102 0V1a1 1 0 00-1-1H6a1 1 0 00-1 1zM0 6v5a1 1 0 001 1h5a1 1 0 100-2H2V6a1 1 0 00-2 0z"/>
    </symbol>
    <symbol viewBox="0 0 15 15" id="settings" xmlns="http://www.w3.org/2000/svg">
        <path fill-rule="evenodd" clip-rule="evenodd"
              d="M7.058 1.433a.625.625 0 011.067.442v.059a1.656 1.656 0 001 1.514 1.656 1.656 0 001.825-.332l.042-.043a.625.625 0 01.885 0 .624.624 0 010 .885l-.038.038-.005.004a1.656 1.656 0 00-.384 1.69v.063l.05.118a1.657 1.657 0 001.516 1.004h.109a.625.625 0 110 1.25h-.059a1.656 1.656 0 00-1.514 1 1.656 1.656 0 00.332 1.825l.043.042a.624.624 0 010 .885.625.625 0 01-.885 0l-.037-.038-.006-.005a1.656 1.656 0 00-1.823-.332 1.657 1.657 0 00-1.001 1.514v.109a.625.625 0 11-1.25 0v-.071a1.657 1.657 0 00-1.066-1.509 1.656 1.656 0 00-1.809.34l-.042.042a.624.624 0 01-.885 0 .626.626 0 010-.885l.038-.037.005-.006a1.656 1.656 0 00.332-1.823 1.656 1.656 0 00-1.514-1.001h-.109a.625.625 0 010-1.25h.071a1.656 1.656 0 001.509-1.066 1.656 1.656 0 00-.34-1.809l-.042-.042a.625.625 0 010-.885.625.625 0 01.885 0l.038.038.004.005a1.656 1.656 0 001.69.384h.063l.118-.05a1.656 1.656 0 001.004-1.516v-.109c0-.166.066-.325.183-.442zM7.5 0a1.875 1.875 0 00-1.875 1.875v.105a.406.406 0 01-.16.32h-.022l-.12.053a.406.406 0 01-.447-.08l-.034-.033A1.875 1.875 0 102.19 4.892l.034.034a.406.406 0 01.08.447l-.009.018-.007.018a.406.406 0 01-.366.266h-.047a1.875 1.875 0 100 3.75h.105a.406.406 0 01.37.246l.003.006a.406.406 0 01-.08.447l-.033.034a1.874 1.874 0 00.608 3.06 1.874 1.874 0 002.044-.408l.034-.034a.406.406 0 01.447-.08l.018.009.018.007a.406.406 0 01.266.366v.047a1.875 1.875 0 103.75 0v-.105a.406.406 0 01.246-.37l.006-.003a.406.406 0 01.447.08l.034.034a1.873 1.873 0 002.652 0l-.441-.442.442.441a1.875 1.875 0 000-2.652l-.035-.035a.405.405 0 01-.08-.446l.004-.006a.406.406 0 01.37-.246h.055a1.875 1.875 0 100-3.75h-.105a.406.406 0 01-.32-.16v-.022l-.053-.12a.406.406 0 01.08-.447l.034-.034a1.875 1.875 0 10-2.653-2.652l-.035.034a.406.406 0 01-.446.08L9.621 2.3a.406.406 0 01-.246-.371v-.055A1.875 1.875 0 007.5 0zM6.25 7.5a1.25 1.25 0 112.5 0 1.25 1.25 0 01-2.5 0zM7.5 5a2.5 2.5 0 100 5 2.5 2.5 0 000-5z"/>
    </symbol>
    <symbol viewBox="0 0 16 12" id="sms" xmlns="http://www.w3.org/2000/svg">
        <path d="M13.2 0H2.4A2.4 2.4 0 000 2.4v7.2A2.4 2.4 0 002.4 12h10.8a2.4 2.4 0 002.4-2.4V2.4A2.4 2.4 0 0013.2 0zM7.8 7.2a1.2 1.2 0 110-2.4 1.2 1.2 0 010 2.4zm3.6 0a1.2 1.2 0 110-2.4 1.2 1.2 0 010 2.4zm-7.2 0a1.2 1.2 0 110-2.4 1.2 1.2 0 010 2.4z"/>
    </symbol>
    <symbol viewBox="0 0 20 20" id="spravka" xmlns="http://www.w3.org/2000/svg">
        <path d="M17.662 0H2.338A2.34 2.34 0 000 2.338v15.324A2.34 2.34 0 002.338 20h15.324A2.34 2.34 0 0020 17.662V2.338A2.34 2.34 0 0017.662 0zm1.494 17.662c0 .823-.67 1.493-1.493 1.493H2.338c-.824 0-1.493-.67-1.493-1.493V2.338c0-.824.67-1.493 1.493-1.493h15.324c.823 0 1.493.67 1.493 1.493v15.324z"/>
        <path d="M13.448 3.684a3.439 3.439 0 00-3.435 3.435c0 1.095.516 2.07 1.316 2.698v6.646l2.208-1.254 2.207 1.254V9.667a3.424 3.424 0 001.14-2.548 3.439 3.439 0 00-3.436-3.435zm1.452 6.55v4.778l-1.363-.774-1.363.774V10.31c.04.016.082.027.123.041.058.021.116.042.176.06.04.012.08.021.12.03.077.021.155.04.235.054l.067.01c.097.016.194.029.293.036l.03.002c.077.005.153.011.23.011.032 0 .063-.004.094-.004l.021-.001c.11-.004.216-.012.322-.025l.048-.008c.094-.013.187-.029.278-.05.038-.008.076-.02.114-.03.067-.017.133-.035.199-.056.056-.019.11-.04.165-.06.049-.02.097-.038.144-.06.022-.009.045-.016.067-.026zm.201-1.121l-.019.015-.037.028a2.66 2.66 0 01-.34.228l-.014.008a2.534 2.534 0 01-.346.156 2.562 2.562 0 01-.429.119l-.08.011c-.127.02-.256.033-.388.033a2.61 2.61 0 01-.432-.04 2.643 2.643 0 01-.315-.071l-.02-.006a2.54 2.54 0 01-.393-.161 2.59 2.59 0 112.813-.32zM7.662 6.042H3.496v.845h4.166v-.845zm0 2.358H3.496v.844h4.166v-.845zm0 2.356H3.496v.845h4.166v-.845zm0 2.357H3.496v.845h4.166v-.845z"/>
    </symbol>
    <symbol viewBox="0 0 16 16" id="star" xmlns="http://www.w3.org/2000/svg">
        <path d="M15.94 6.011a1.11 1.11 0 00-.885-.753l-4.177-.626-1.88-3.99a1.099 1.099 0 00-1.996 0L5.149 4.617l-4.204.64c-.41.063-.75.351-.885.753-.137.414-.036.862.266 1.17l3.04 3.112-.718 4.386c-.071.438.106.867.464 1.12a1.08 1.08 0 001.154.064l3.708-2.07 3.76 2.07c.37.203.81.178 1.154-.065.358-.252.536-.68.464-1.12l-.72-4.391 3.042-3.106c.302-.308.403-.756.266-1.17z"/>
    </symbol>
    <symbol viewBox="0 0 10 6" id="submenu" xmlns="http://www.w3.org/2000/svg">
        <path fill-rule="evenodd" clip-rule="evenodd"
              d="M8.88 4.333a.5.5 0 00-.055-.706L5.328.628A.5.5 0 005 .508a.5.5 0 00-.328.12L1.175 3.627a.5.5 0 10.653.76L5 1.667l3.172 2.72c.21.18.527.156.707-.054z"/>
    </symbol>
    <symbol viewBox="0 0 32 32" id="telegram" xmlns="http://www.w3.org/2000/svg">
        <path fill-rule="evenodd" clip-rule="evenodd"
              d="M16 32c8.837 0 16-7.163 16-16S24.837 0 16 0 0 7.163 0 16s7.163 16 16 16zm2.823-21.012c2.196-.855 4.075-1.578 4.175-1.605.257-.069.583-.066.737.007.131.062.263.275.265.428.001.123-2.954 14.872-2.995 14.949-.085.157-.35.403-.523.483-.223.103-.538.111-.802.02-.136-.047-1.032-.708-3.538-2.61a506.517 506.517 0 01-3.416-2.607c-.057-.055.091-.195 2.15-2.033 6.079-5.424 6.452-5.75 6.391-5.891-.005-.014-.015-.026-.024-.04-.047-.074-.235-.098-.376-.05-.056.02-2.484 1.538-5.397 3.375-2.912 1.836-5.323 3.346-5.356 3.354-.103.025-4.158-1.352-4.36-1.48-.3-.192-.469-.496-.409-.735.037-.144.272-.376.494-.486.111-.056 2.18-.871 4.596-1.813l8.388-3.266z"/>
    </symbol>
    <symbol viewBox="0 0 18 18" id="time" xmlns="http://www.w3.org/2000/svg">
        <path d="M11.866 10.333L9.675 8.69V5.332a.72.72 0 10-1.44 0V9.05c0 .226.107.44.288.575l2.479 1.86a.716.716 0 001.008-.145.719.719 0 00-.144-1.007z"/>
        <path d="M8.955.9C4.488.9.855 4.533.855 9s3.633 8.1 8.1 8.1 8.1-3.633 8.1-8.1S13.422.9 8.955.9zm0 14.76A6.669 6.669 0 012.295 9a6.669 6.669 0 016.66-6.66A6.669 6.669 0 0115.615 9a6.669 6.669 0 01-6.66 6.66z"/>
    </symbol>
    <symbol id="to_right" viewBox="0 0 12 12" xmlns="http://www.w3.org/2000/svg">
        <style>.cwst0{fill-rule:evenodd;clip-rule:evenodd;fill:#545761}</style>
        <path class="cwst0"
              d="M11.923 6.382a1.01 1.01 0 01-.216.325L7.464 10.95A.999.999 0 116.05 9.536L8.586 7H1a1 1 0 010-2h7.586L6.05 2.465a1.002 1.002 0 010-1.415.999.999 0 011.414 0l4.243 4.243a1.001 1.001 0 01.216 1.089z"/>
    </symbol>
    <symbol viewBox="0 0 16 16" id="virus" xmlns="http://www.w3.org/2000/svg">
        <g clip-path="url(#cxa)">
            <path d="M15.922 7.73a1.122 1.122 0 00-1.088-.843h-.007c-.495 0-.929.324-1.073.793h-.715a5.085 5.085 0 00-1.256-3.024l.49-.49a1.124 1.124 0 001.096-1.96 1.116 1.116 0 00-.851-.12 1.124 1.124 0 00-.712 1.613l-.496.49a5.086 5.086 0 00-3.024-1.256v-.722A1.125 1.125 0 007.674.05c-.29.075-.534.258-.687.517a1.123 1.123 0 00.637 1.644v.722a5.084 5.084 0 00-3.023 1.256l-.49-.49a1.125 1.125 0 00-1.274-1.614 1.125 1.125 0 10.806 2.08l.49.491A5.086 5.086 0 002.877 7.68h-.722a1.124 1.124 0 00-2.16.611 1.124 1.124 0 102.161.05h.721a5.086 5.086 0 001.256 3.024l-.49.49a1.125 1.125 0 00-1.493.422 1.125 1.125 0 00.397 1.539 1.125 1.125 0 001.563-1.494l.49-.49a5.085 5.085 0 003.024 1.263v.721a1.124 1.124 0 10.66 0v-.721a5.086 5.086 0 003.024-1.256l.49.49a1.117 1.117 0 00-.094.806c.075.29.258.535.517.687.258.153.56.195.851.12a1.12 1.12 0 00.807-1.369 1.125 1.125 0 00-1.613-.712l-.49-.496a5.085 5.085 0 001.262-3.024h.722a1.125 1.125 0 002.041.24c.152-.258.196-.561.12-.852zm-1.095-.182a.463.463 0 11-.001.926.463.463 0 010-.926zm-2.363 4.972a.461.461 0 01.655 0 .46.46 0 010 .655.474.474 0 01-.654 0 .463.463 0 010-.655zm-9.019.654a.474.474 0 01-.654 0 .46.46 0 010-.654.461.461 0 01.654 0 .46.46 0 010 .654zm.136-10c0 .123-.049.24-.136.327a.474.474 0 01-.654 0 .463.463 0 11.79-.327zm8.883-.328a.46.46 0 01.327-.136.46.46 0 01.328.136.459.459 0 010 .654.459.459 0 01-.654 0 .46.46 0 010-.654zm-4.51 9.591A4.432 4.432 0 013.529 8.01a4.432 4.432 0 014.427-4.427 4.432 4.432 0 014.427 4.427 4.432 4.432 0 01-4.427 4.428zm0-10.836a.463.463 0 11.002-.926.463.463 0 01-.001.926zm0 12.819a.463.463 0 110 .926.463.463 0 010-.926zM1.546 8.01a.463.463 0 11-.926 0 .463.463 0 01.926 0z"/>
            <path d="M5.574 6.822h-.001c-.3 0-.582.116-.794.328v.001a1.125 1.125 0 00.794 1.917 1.125 1.125 0 000-2.246zM5.11 7.946a.46.46 0 01.462-.462.46.46 0 01.463.462.46.46 0 01-.462.463.46.46 0 01-.463-.463zm2.047-3.174a1.115 1.115 0 00-.329.795 1.12 1.12 0 001.123 1.122 1.125 1.125 0 00.795-1.917 1.125 1.125 0 00-1.589 0zm.332.795a.46.46 0 01.463-.462.461.461 0 01.327.79.46.46 0 01-.79-.327zm3.636 1.584a1.12 1.12 0 00-1.578-.009l-.014.012a1.125 1.125 0 00.797 1.914 1.125 1.125 0 00.795-1.917zm-1.121.468a.461.461 0 01.79.327.463.463 0 11-.79-.327zM7.16 9.527l-.003.003a1.125 1.125 0 00.794 1.917 1.125 1.125 0 00.795-1.917 1.124 1.124 0 00-1.586-.003zm.465.47a.46.46 0 01.654 0 .463.463 0 11-.654 0z"/>
        </g>
        <defs>
            <clipPath id="cxa">
                <path d="M0 0h16v16H0z"/>
            </clipPath>
        </defs>
    </symbol>
    <symbol id="vk" viewBox="0 0 16 16" xmlns="http://www.w3.org/2000/svg">
        <style>.cyst0{fill:#545761}</style>
        <path class="cyst0"
              d="M8 0a8 8 0 100 16A8 8 0 008 0zm3.326 9.392c.747.693.902 1.031.927 1.073.309.513-.343.553-.343.553l-1.247.017s-.268.053-.621-.189c-.466-.32-.907-1.153-1.249-1.044-.348.11-.336.859-.336.859s.003.16-.077.245c-.086.093-.255.111-.255.111h-.557s-1.232.074-2.316-1.055C4.069 8.731 3.024 6.288 3.024 6.288s-.06-.16.005-.238c.073-.087.274-.093.274-.093l1.334-.009s.126.021.216.087c.074.055.116.157.116.157s.216.545.501 1.039c.557.963.817 1.174 1.006 1.071.276-.151.194-1.362.194-1.362s.005-.44-.139-.636c-.111-.152-.322-.196-.415-.208-.075-.01.048-.185.208-.262.24-.117.664-.124 1.165-.119.39.004.502.028.655.065.46.111.304.54.304 1.569 0 .329-.059.793.178.946.102.066.352.01.978-1.052.296-.503.519-1.094.519-1.094s.049-.106.124-.151c.077-.046.181-.032.181-.032l1.404-.009s.422-.05.49.14c.072.2-.157.667-.731 1.431-.942 1.255-1.047 1.138-.265 1.864z"/>
    </symbol>
    <symbol viewBox="0 0 21 16" id="yes" xmlns="http://www.w3.org/2000/svg">
        <path d="M20.314 3.912L8.658 15.325a2.334 2.334 0 01-.758.5 2.376 2.376 0 01-2.552-.5L.686 10.76A2.268 2.268 0 010 9.14c0-.609.247-1.191.686-1.621a2.366 2.366 0 011.655-.672c.62 0 1.216.242 1.655.672l3.007 2.967L17.004.671A2.366 2.366 0 0118.66 0c.621 0 1.216.241 1.655.671.44.43.686 1.013.686 1.62 0 .609-.247 1.192-.686 1.621z"/>
    </symbol>
    <symbol id="yotb" viewBox="0 0 16 16" xmlns="http://www.w3.org/2000/svg">
        <style>.dast0{fill-rule:evenodd;clip-rule:evenodd;fill:#545761}</style>
        <path class="dast0"
              d="M0 8a8 8 0 1116 0A8 8 0 010 8zm11.455 3.308c.78 0 1.412-.633 1.412-1.413v-3.79c0-.781-.632-1.413-1.412-1.413H4.828c-.78 0-1.412.633-1.412 1.413v3.79c0 .781.632 1.413 1.412 1.413h6.627zM10.297 8l-3.185 2.1V5.9L10.297 8z"/>
    </symbol>
    <symbol viewBox="0 0 11 14" id="complex" xmlns="http://www.w3.org/2000/svg">
        <path d="M11 4.9c0-.77-.619-1.4-1.375-1.4h-2.2a.314.314 0 01-.275-.49c.206-.42.412-.91.412-1.26C7.563.77 6.806 0 5.845 0c-.965 0-1.72.77-1.72 1.75 0 .35.206.84.412 1.26.138.21-.068.49-.274.49H1.375C.619 3.5 0 4.13 0 4.9v1.68c0 .42.412.77.825.63.344-.14.688-.21.894-.21.962 0 1.718.77 1.718 1.75S2.681 10.5 1.72 10.5c-.207 0-.55-.07-.894-.21-.412-.07-.825.21-.825.63v1.68c0 .77.619 1.4 1.375 1.4h8.25c.756 0 1.375-.63 1.375-1.4V4.9z"></path>
    </symbol>
    <symbol id="new_basket_empty" viewBox="0 0 16 18" xmlns="http://www.w3.org/2000/svg">
        <path fill-rule="evenodd" clip-rule="evenodd"
              d="M2.0452 3.42857C2.24277 1.50248 3.87013 0 5.84841 0C6.54476 0 7.19763 0.186159 7.75997 0.511426C8.3223 0.186159 8.97517 0 9.67152 0C11.6498 0 13.2772 1.50248 13.4747 3.42857H14C15.1046 3.42857 16 4.324 16 5.42857V15.1429C16 16.2474 15.1046 17.1429 14 17.1429H2C0.895431 17.1429 0 16.2474 0 15.1429V5.42857C0 4.324 0.895431 3.42857 2 3.42857H2.0452ZM9.67156 1.31867C10.9296 1.31867 11.9747 2.23005 12.1828 3.42857H7.16033C7.24249 2.95526 7.45521 2.52672 7.76004 2.18142L7.76006 2.18145C8.05061 1.85231 8.42484 1.59879 8.84945 1.45418L8.84944 1.45417C9.10737 1.36633 9.3839 1.31867 9.67156 1.31867ZM6.67053 1.45413C6.23228 2.00848 5.94436 2.68714 5.86831 3.42857H3.33728C3.54533 2.23005 4.59049 1.31867 5.84851 1.31867C6.13613 1.31867 6.41262 1.36631 6.67053 1.45413ZM5.71429 9.14286C6.34547 9.14286 6.85714 8.63118 6.85714 8C6.85714 7.36882 6.34547 6.85714 5.71429 6.85714C5.0831 6.85714 4.57143 7.36882 4.57143 8C4.57143 8.63118 5.0831 9.14286 5.71429 9.14286ZM11.4286 8C11.4286 8.63118 10.9169 9.14285 10.2857 9.14285C9.65452 9.14285 9.14284 8.63118 9.14284 8C9.14284 7.36881 9.65452 6.85714 10.2857 6.85714C10.9169 6.85714 11.4286 7.36881 11.4286 8ZM6.57142 11.7143C6.09803 11.7143 5.71427 12.098 5.71427 12.5714C5.71427 13.0448 6.09803 13.4286 6.57142 13.4286H9.42857C9.90196 13.4286 10.2857 13.0448 10.2857 12.5714C10.2857 12.098 9.90196 11.7143 9.42857 11.7143H6.57142Z"/>
    </symbol>
    <symbol id="new_basket" viewBox="0 0 16 18" xmlns="http://www.w3.org/2000/svg">
        <path fill-rule="evenodd" clip-rule="evenodd"
              d="M2.0452 3.42857C2.24277 1.50248 3.87013 0 5.84841 0C6.54476 0 7.19763 0.186159 7.75997 0.511426C8.3223 0.186159 8.97517 0 9.67152 0C11.6498 0 13.2772 1.50248 13.4747 3.42857H14C15.1046 3.42857 16 4.324 16 5.42857V15.1429C16 16.2474 15.1046 17.1429 14 17.1429H2C0.895431 17.1429 0 16.2474 0 15.1429V5.42857C0 4.324 0.895431 3.42857 2 3.42857H2.0452ZM9.67156 1.31871C10.9296 1.31871 11.9747 2.23007 12.1828 3.42857H7.16033C7.2425 2.95527 7.45522 2.52675 7.76004 2.18146L7.76006 2.18149C8.05061 1.85234 8.42485 1.59882 8.84947 1.45421L8.84946 1.45419C9.10739 1.36636 9.38391 1.31871 9.67156 1.31871ZM6.6705 1.45416C6.23227 2.0085 5.94436 2.68715 5.86831 3.42857H3.33728C3.54535 2.23007 4.5905 1.31871 5.84851 1.31871C6.13612 1.31871 6.4126 1.36634 6.6705 1.45416ZM5.71429 9.14286C6.34547 9.14286 6.85714 8.63118 6.85714 8C6.85714 7.36882 6.34547 6.85714 5.71429 6.85714C5.0831 6.85714 4.57143 7.36882 4.57143 8C4.57143 8.63118 5.0831 9.14286 5.71429 9.14286ZM11.4286 8.00003C11.4286 8.63121 10.9169 9.14288 10.2857 9.14288C9.65452 9.14288 9.14284 8.63121 9.14284 8.00003C9.14284 7.36884 9.65452 6.85717 10.2857 6.85717C10.9169 6.85717 11.4286 7.36884 11.4286 8.00003ZM5.71427 11.4286V11.4286H10.2857V11.4286C10.2857 12.691 9.26236 13.7143 7.99999 13.7143C6.73762 13.7143 5.71427 12.691 5.71427 11.4286Z"/>
    </symbol>
    <symbol id="offlineOrder" viewBox="0 0 16 18" xmlns="http://www.w3.org/2000/svg">
        <path fill-rule="evenodd" clip-rule="evenodd"
              d="M2.0452 3.42857C2.24277 1.50248 3.87013 0 5.84841 0C6.54476 0 7.19763 0.186159 7.75997 0.511426C8.3223 0.186159 8.97517 0 9.67152 0C11.6498 0 13.2772 1.50248 13.4747 3.42857H14C15.1046 3.42857 16 4.324 16 5.42857V15.1429C16 16.2474 15.1046 17.1429 14 17.1429H2C0.895431 17.1429 0 16.2474 0 15.1429V5.42857C0 4.324 0.895431 3.42857 2 3.42857H2.0452ZM9.67156 1.31871C10.9296 1.31871 11.9747 2.23007 12.1828 3.42857H7.16033C7.2425 2.95527 7.45522 2.52675 7.76004 2.18146L7.76006 2.18149C8.05061 1.85234 8.42485 1.59882 8.84947 1.45421L8.84946 1.45419C9.10739 1.36636 9.38391 1.31871 9.67156 1.31871ZM6.6705 1.45416C6.23227 2.0085 5.94436 2.68715 5.86831 3.42857H3.33728C3.54535 2.23007 4.5905 1.31871 5.84851 1.31871C6.13612 1.31871 6.4126 1.36634 6.6705 1.45416ZM5.71429 9.14286C6.34547 9.14286 6.85714 8.63118 6.85714 8C6.85714 7.36882 6.34547 6.85714 5.71429 6.85714C5.0831 6.85714 4.57143 7.36882 4.57143 8C4.57143 8.63118 5.0831 9.14286 5.71429 9.14286ZM11.4286 8.00003C11.4286 8.63121 10.9169 9.14288 10.2857 9.14288C9.65452 9.14288 9.14284 8.63121 9.14284 8.00003C9.14284 7.36884 9.65452 6.85717 10.2857 6.85717C10.9169 6.85717 11.4286 7.36884 11.4286 8.00003ZM5.71427 11.4286V11.4286H10.2857V11.4286C10.2857 12.691 9.26236 13.7143 7.99999 13.7143C6.73762 13.7143 5.71427 12.691 5.71427 11.4286Z"
              fill="white"/>
    </symbol>
    <symbol id="onlineOrder" viewBox="0 0 16 16" xmlns="http://www.w3.org/2000/svg">
        <path d="M12.6458 0.000134985C12.5443 0.00273896 12.4375 0.0157602 12.3333 0.0418013L1.5 2.89594C0.625 3.12511 0 3.92719 0 4.83343V14C0 15.0964 0.903646 16 2 16H14C15.0964 16 16 15.0964 16 14V5.33342C16 4.23708 15.0964 3.33344 14 3.33344H5.08333L12.6667 1.33346V2.66678H14V1.33346C14 0.583463 13.362 -0.0102816 12.6458 0.000134985ZM2 4.66676H14C14.3776 4.66676 14.6667 4.95582 14.6667 5.33342V14C14.6667 14.3776 14.3776 14.6667 14 14.6667H2C1.6224 14.6667 1.33333 14.3776 1.33333 14V5.33342C1.33333 4.95582 1.6224 4.66676 2 4.66676ZM12.3333 8.66673C11.7812 8.66673 11.3333 9.11464 11.3333 9.66672C11.3333 10.2188 11.7812 10.6667 12.3333 10.6667C12.8854 10.6667 13.3333 10.2188 13.3333 9.66672C13.3333 9.11464 12.8854 8.66673 12.3333 8.66673Z"
              fill="white"/>
    </symbol>
    <symbol id="arrowRight" viewBox="0 0 10 8" xmlns="http://www.w3.org/2000/svg">
        <path d="M5.4517 8L4.79545 7.35227L7.49716 4.65057H0.5V3.71307H7.49716L4.79545 1.01989L5.4517 0.363636L9.26989 4.18182L5.4517 8Z"/>
    </symbol>
</svg>