<svg width="170" height="45" fill="none" xmlns="http://www.w3.org/2000/svg"><g clip-path="url(#clip0_52_1985)"><mask id="a" style="mask-type:luminance" maskUnits="userSpaceOnUse" x="0" y="0" width="173" height="45"><path d="M172.252 0H0v45h172.252V0z" fill="#fff"/></mask><g mask="url(#a)"><path d="M17.858 1.435v13.631c9.804 2.87 14.658 11.718 15.86 15.784h11.534c1.153 0 1.441-.957 1.441-1.435V15.066c0-1.148-.96-1.435-1.441-1.435H33.718V1.435C33.718.287 32.756 0 32.276 0H19.3c-1.154 0-1.442.957-1.442 1.435z" fill="#0088F5"/><path d="M33.18 32.371C25.373 12.951 7.876 12.887.383 14.33c3.243 6.062 11.67 9.502 15.477 10.464C5.248 22.484.875 17.096.015 14.69c-.59 14.722 16.46 17.2 25.058 16.598 2.948-.289 5.159 1.804 5.896 2.887v8.66H19.177v-9.382c-.59-1.155-1.72-1.443-2.211-1.443v12.268c0 .577.982.721 1.474.721h13.266c.59 0 1.228-.48 1.474-.721V32.37z" fill="url(#paint0_linear_52_1985)"/><path d="M62.254 40.714h-.622v-4.517H58.85v4.517h-.622v-5.1h4.026v5.1zm3.827-.896l.278.423c-.283.364-.705.546-1.266.546-.527 0-.954-.155-1.281-.466-.322-.311-.483-.726-.483-1.246 0-.48.158-.887.475-1.217.318-.33.715-.495 1.194-.495.576 0 1.008.143 1.295.43l-.27.459c-.254-.229-.569-.343-.945-.343-.307 0-.573.112-.798.335-.22.219-.33.496-.33.831 0 .355.113.636.338.845.23.214.512.32.849.32.38 0 .695-.14.944-.422zm3.53-1.544l-1.903 2.44h-.585v-3.278h.585v2.44l1.904-2.44h.586v3.278h-.586v-2.44zm3.898-.838h.681l-1.178 1.58 1.251 1.698h-.717l-.966-1.326-.981 1.326h-.681l1.244-1.668-1.17-1.61h.717l.893 1.238.907-1.238zm3.953.838l-1.904 2.44h-.585v-3.278h.585v2.44l1.904-2.44h.585v3.278h-.585v-2.44zm1.826-.146l-.154-.466c.327-.2.693-.3 1.098-.3.444 0 .766.11.966.329.2.218.3.556.3 1.012v2.011h-.556v-.422c-.259.315-.61.473-1.054.473-.303 0-.547-.09-.732-.27-.186-.184-.278-.431-.278-.742 0-.321.114-.574.344-.758.23-.19.53-.284.9-.284.347 0 .62.07.82.211 0-.37-.051-.634-.154-.794-.102-.16-.3-.24-.593-.24-.297 0-.6.08-.907.24zm.805 2.113c.327 0 .61-.141.85-.423v-.415a1.242 1.242 0 00-.74-.219c-.2 0-.369.049-.505.146a.452.452 0 00-.198.393c0 .16.051.287.154.38.107.092.253.138.439.138zm3.177-2.222h-1.208v-.583h3.001v.583h-1.208v2.695h-.585V38.02zm3.02 4.152h-.587v-4.735h.586v.386c.117-.136.278-.245.483-.328.205-.087.417-.131.637-.131.469 0 .837.155 1.106.466.278.306.417.704.417 1.195 0 .5-.159.92-.476 1.26-.312.336-.725.503-1.237.503-.395 0-.706-.075-.93-.226v1.61zm.95-4.262c-.39 0-.707.15-.95.452v1.625c.258.17.55.255.878.255.346 0 .622-.11.827-.328.21-.224.315-.512.315-.867 0-.345-.096-.62-.286-.823-.19-.21-.451-.314-.783-.314zm5.02.365l-1.903 2.44h-.586v-3.278h.586v2.44l1.903-2.44h.586v3.278h-.586v-2.44zm3.093-.838h1.025v3.278h-.586v-1.093h-.637l-.805 1.093h-.71l.951-1.238a.875.875 0 01-.505-.32.987.987 0 01-.205-.627c0-.336.122-.6.366-.795.244-.199.613-.298 1.106-.298zm-.85 1.107a.48.48 0 00.184.386.673.673 0 00.431.146h.674v-1.093h-.534c-.25 0-.437.051-.564.153a.497.497 0 00-.19.408zm2.778 1.778a.37.37 0 01.117-.27.423.423 0 01.3-.116.37.37 0 01.271.116.37.37 0 01.117.27.435.435 0 01-.11.299.365.365 0 01-.278.116.423.423 0 01-.3-.116.42.42 0 01-.117-.3zm7.318.393h-.622v-2.31h-2.819v2.31h-.622v-5.1h.622v2.208h2.819v-2.208h.622v5.1zm1.469-2.586l-.154-.466a2.07 2.07 0 011.098-.3c.445 0 .767.11.967.329.2.218.3.556.3 1.012v2.011h-.556v-.422c-.259.315-.61.473-1.055.473-.302 0-.546-.09-.732-.27-.185-.184-.278-.431-.278-.742 0-.321.115-.574.344-.758.23-.19.53-.284.901-.284.346 0 .62.07.82.211 0-.37-.052-.634-.154-.794-.103-.16-.3-.24-.593-.24-.298 0-.6.08-.908.24zm.805 2.113c.327 0 .611-.141.85-.423v-.415a1.244 1.244 0 00-.74-.219.85.85 0 00-.505.146.452.452 0 00-.198.393c0 .16.052.287.154.38.108.092.254.138.439.138zm2.972 1.93h-.585v-4.735h.585v.386a1.23 1.23 0 01.484-.328c.205-.087.417-.131.636-.131.469 0 .837.155 1.106.466.278.306.417.704.417 1.195 0 .5-.159.92-.476 1.26-.312.336-.724.503-1.237.503-.395 0-.705-.075-.93-.226v1.61zm.952-4.262c-.39 0-.708.15-.952.452v1.625c.259.17.552.255.879.255.346 0 .622-.11.827-.328.21-.224.315-.512.315-.867 0-.345-.095-.62-.286-.823-.19-.21-.451-.314-.783-.314zm4.646-.473h.769l-1.442 1.566 1.581 1.712h-.813l-1.486-1.675 1.391-1.603zm-1.53 3.278h-.585v-3.278h.585v3.278zm3.145-.408c-.322-.33-.483-.74-.483-1.231 0-.495.161-.903.483-1.224.327-.325.752-.488 1.274-.488.523 0 .945.163 1.267.488.327.32.49.729.49 1.224s-.163.906-.49 1.231c-.322.32-.744.481-1.267.481-.517 0-.942-.16-1.274-.48zm.462-2.069c-.215.214-.323.493-.323.838s.106.624.315.838c.215.218.488.328.82.328.332 0 .603-.107.813-.32.215-.22.322-.501.322-.846a1.16 1.16 0 00-.322-.838 1.08 1.08 0 00-.813-.328c-.332 0-.602.11-.812.328zm6.126 2.477h-.586V38.02h-1.156l-.037.553a7.004 7.004 0 01-.176 1.13c-.073.296-.17.52-.293.67a1.016 1.016 0 01-.373.306c-.132.053-.293.08-.483.08l-.044-.568a.408.408 0 00.168-.022.579.579 0 00.191-.146.953.953 0 00.19-.291 2.22 2.22 0 00.154-.51 4.78 4.78 0 00.095-.765l.059-1.02h2.291v3.278zm1.319-.408c-.322-.33-.483-.74-.483-1.231 0-.495.161-.903.483-1.224.327-.325.752-.488 1.274-.488s.945.163 1.267.488c.327.32.49.729.49 1.224s-.163.906-.49 1.231c-.322.32-.745.481-1.267.481-.517 0-.942-.16-1.274-.48zm.462-2.069c-.215.214-.323.493-.323.838s.105.624.315.838c.215.218.488.328.82.328.332 0 .603-.107.813-.32.214-.22.322-.501.322-.846 0-.335-.108-.614-.322-.838a1.08 1.08 0 00-.813-.328c-.332 0-.602.11-.812.328zm4 2.477h-.586v-3.278h2.086v.546h-1.5v2.732zm4.556-2.44l-1.904 2.44h-.585v-3.278h.585v2.44l1.904-2.44h.585v3.278h-.585v-2.44zm3.092-.838h1.025v3.278h-.586v-1.093h-.637l-.805 1.093h-.71l.952-1.238a.878.878 0 01-.506-.32.99.99 0 01-.205-.627c0-.336.123-.6.366-.795.245-.199.613-.298 1.106-.298zm-.849 1.107c0 .156.061.284.183.386a.673.673 0 00.432.146h.673v-1.093h-.534c-.249 0-.437.051-.564.153a.496.496 0 00-.19.408zm2.777 1.778c0-.102.039-.192.118-.27a.423.423 0 01.3-.116c.102 0 .192.038.271.116a.37.37 0 01.117.27.436.436 0 01-.11.299.365.365 0 01-.278.116.423.423 0 01-.3-.116.416.416 0 01-.118-.3zm4.354-4.124h-1.794v-.583h4.21v.583h-1.794v4.517h-.622v-4.517zm4.647 3.701l.184.46c-.318.286-.73.43-1.238.43-.536 0-.964-.156-1.281-.467-.322-.311-.483-.726-.483-1.246 0-.49.151-.899.454-1.224.298-.325.712-.488 1.244-.488.44 0 .803.14 1.091.422.293.277.439.637.439 1.079 0 .14-.012.272-.036.393h-2.533c.024.306.139.547.344.721.21.175.478.263.805.263.43 0 .767-.114 1.01-.343zm-1.149-1.989c-.288 0-.527.08-.717.24a.974.974 0 00-.33.635h1.999c-.015-.272-.108-.486-.278-.642-.166-.155-.391-.233-.674-.233zm2.94 4.262h-.586v-4.735h.586v.386c.117-.136.278-.245.483-.328.205-.087.417-.131.637-.131.468 0 .837.155 1.105.466.278.306.417.704.417 1.195 0 .5-.158.92-.475 1.26-.313.336-.725.503-1.238.503-.395 0-.705-.075-.929-.226v1.61zm.951-4.262c-.39 0-.707.15-.951.452v1.625c.258.17.551.255.878.255.347 0 .622-.11.827-.328.21-.224.315-.512.315-.867 0-.345-.095-.62-.285-.823-.191-.21-.452-.314-.784-.314zm2.707.219l-.154-.466a2.07 2.07 0 011.098-.3c.444 0 .766.11.966.329.2.218.3.556.3 1.012v2.011h-.556v-.422c-.259.315-.61.473-1.054.473-.303 0-.547-.09-.732-.27-.186-.184-.278-.431-.278-.742 0-.321.114-.574.344-.758.229-.19.529-.284.9-.284.347 0 .62.07.82.211 0-.37-.051-.634-.154-.794-.102-.16-.3-.24-.593-.24-.297 0-.6.08-.907.24zm.805 2.113c.327 0 .61-.141.849-.423v-.415a1.24 1.24 0 00-.739-.219.846.846 0 00-.505.146.452.452 0 00-.198.393c0 .16.051.287.154.38.107.092.253.138.439.138zm5.351.473h-.586v-2.732h-1.793v2.732h-.586v-3.278h2.965v3.278zm3.549-2.44l-1.903 2.44h-.586v-3.278h.586v2.44l1.903-2.44h.586v3.278h-.586v-2.44zm3.092-.838h1.025v3.278h-.585v-1.093h-.637l-.805 1.093h-.711l.952-1.238a.876.876 0 01-.505-.32.985.985 0 01-.205-.627c0-.336.122-.6.366-.795.244-.199.613-.298 1.105-.298zm-.849 1.107c0 .156.061.284.183.386a.673.673 0 00.432.146h.674v-1.093h-.535c-.249 0-.436.051-.563.153a.497.497 0 00-.191.408zm2.778 1.778a.37.37 0 01.117-.27.423.423 0 01.3-.116.37.37 0 01.271.116.37.37 0 01.117.27.435.435 0 01-.109.299.369.369 0 01-.279.116.423.423 0 01-.3-.116.42.42 0 01-.117-.3z" fill="#729CB0"/><path d="M61.014 31.34h-3.22v-6.686h2.1c.56-.65 1.167-2.09 1.82-4.318.671-2.285 1.073-4.977 1.203-8.079l.196-3.9h12.148v16.297h2.66v6.685H74.7v-3.482H61.014v3.482zm5.43-19.78l-.308 3.4c-.168 2.34-.513 4.391-1.035 6.156-.541 1.838-1.017 3.018-1.428 3.538h8.173V11.56h-5.402zm26.504 16.297H81.33v-19.5h11.337v3.204h-7.894v4.847h7.054v3.203h-7.054v5.043h8.174v3.203zm8.402-16.296h-6.354V8.357h16.151v3.204h-6.354v16.296h-3.443V11.561zm10.426 6.546c0-2.841.951-5.228 2.855-7.16 1.94-1.93 4.385-2.896 7.333-2.896 2.949 0 5.384.928 7.306 2.785 1.941 1.876 2.911 4.3 2.911 7.271 0 2.916-.97 5.32-2.911 7.215-1.941 1.894-4.376 2.842-7.306 2.842-2.948 0-5.383-.929-7.305-2.786-1.922-1.857-2.883-4.28-2.883-7.27zm3.638 0c0 1.969.626 3.603 1.876 4.903 1.25 1.3 2.808 1.95 4.674 1.95 2.016 0 3.611-.65 4.787-1.95 1.194-1.3 1.791-2.934 1.791-4.903 0-1.987-.634-3.63-1.903-4.93-1.269-1.282-2.827-1.923-4.675-1.923-1.884 0-3.452.641-4.702 1.922-1.232 1.282-1.848 2.925-1.848 4.931zm24.194 9.75h-3.443v-19.5h3.443v9.249l7.725-9.249h4.143l-8.061 9.082 8.565 10.418h-4.367l-8.005-10.056v10.056zm27.874-4.457l1.315 2.563c-.615.65-1.502 1.18-2.659 1.588a10.603 10.603 0 01-3.611.613c-2.985 0-5.421-.92-7.305-2.758-1.866-1.839-2.799-4.272-2.799-7.299 0-2.897.886-5.302 2.659-7.215 1.754-1.894 4.208-2.841 7.361-2.841 2.501 0 4.488.659 5.962 1.978l-1.539 2.535c-1.325-.873-2.799-1.31-4.423-1.31-1.866 0-3.396.622-4.59 1.867-1.194 1.244-1.792 2.906-1.792 4.986 0 2.043.626 3.696 1.876 4.959 1.269 1.262 2.901 1.894 4.898 1.894 1.717 0 3.266-.52 4.647-1.56z" fill="#3F3F3F"/></g></g><defs><linearGradient id="paint0_linear_52_1985" x1="18.056" y1="23.303" x2="16.65" y2="45.005" gradientUnits="userSpaceOnUse"><stop stop-color="#01D4A1"/><stop offset=".279" stop-color="#01C0A8"/><stop offset=".576" stop-color="#01B8AB"/><stop offset=".808" stop-color="#018BF2"/><stop offset="1" stop-color="#0088F5"/></linearGradient><clipPath id="clip0_52_1985"><path fill="#fff" d="M0 0h170v45H0z"/></clipPath></defs></svg>